<?xml version="1.0" encoding="UTF-8" standalone="no"?>
<!-- Created with Inkscape (http://www.inkscape.org/) -->

<svg
   xmlns:dc="http://purl.org/dc/elements/1.1/"
   xmlns:cc="http://creativecommons.org/ns#"
   xmlns:rdf="http://www.w3.org/1999/02/22-rdf-syntax-ns#"
   xmlns:svg="http://www.w3.org/2000/svg"
   xmlns="http://www.w3.org/2000/svg"
   xmlns:sodipodi="http://sodipodi.sourceforge.net/DTD/sodipodi-0.dtd"
   xmlns:inkscape="http://www.inkscape.org/namespaces/inkscape"
   width="569mm"
   height="569.58649mm"
   viewBox="0 0 569 569.58649"
   version="1.1"
   id="svg1232"
   inkscape:version="0.92.3 (2405546, 2018-03-11)"
   sodipodi:docname="Avatar2.svg"
   inkscape:export-filename="D:\Source\StacSolutionsWeb\Images\Avatar2.png"
   inkscape:export-xdpi="96"
   inkscape:export-ydpi="96">
  <defs
     id="defs1226" />
  <sodipodi:namedview
     id="base"
     pagecolor="#ffffff"
     bordercolor="#666666"
     borderopacity="1.0"
     inkscape:pageopacity="0.0"
     inkscape:pageshadow="2"
     inkscape:zoom="0.35"
     inkscape:cx="741.36564"
     inkscape:cy="945.90343"
     inkscape:document-units="mm"
     inkscape:current-layer="layer1"
     showgrid="false"
     inkscape:window-width="2560"
     inkscape:window-height="1361"
     inkscape:window-x="2391"
     inkscape:window-y="-9"
     inkscape:window-maximized="1"
     fit-margin-top="0"
     fit-margin-left="0"
     fit-margin-right="0"
     fit-margin-bottom="0" />
  <metadata
     id="metadata1229">
    <rdf:RDF>
      <cc:Work
         rdf:about="">
        <dc:format>image/svg+xml</dc:format>
        <dc:type
           rdf:resource="http://purl.org/dc/dcmitype/StillImage" />
        <dc:title></dc:title>
      </cc:Work>
    </rdf:RDF>
  </metadata>
  <g
     inkscape:label="Layer 1"
     inkscape:groupmode="layer"
     id="layer1"
     transform="translate(342.80776,165.25754)">
    <rect
       style="opacity:1;fill:#d7eef4;fill-opacity:1;stroke:#502d16;stroke-width:3.0999999;stroke-linecap:round;stroke-miterlimit:4;stroke-dasharray:none;stroke-opacity:1"
       id="rect828"
       width="767.29169"
       height="684.89288"
       x="-423.69467"
       y="-210.26035" />
    <path
       style="display:inline;fill:#ffaaaa;stroke:#000000;stroke-width:3.10000014;stroke-linecap:butt;stroke-linejoin:miter;stroke-miterlimit:4;stroke-dasharray:none;stroke-opacity:1"
       d="m -191.98568,-58.540671 c 0,0 9.99932,99.116684 -44.09948,150.472738 -7.34476,6.97238 15.23434,11.225343 15.23434,11.225343 0,0 -52.10893,-29.415133 -74.83546,31.80524 -19.69829,53.06281 33.88714,54.2958 49.17761,39.28866 3.19498,-3.13579 0.53452,-12.82896 -11.75986,-4.81087 -12.2944,8.0181 -28.33057,38.21954 -25.65787,64.41197 4.27629,28.33058 22.18338,41.9613 54.79026,18.44159 32.60688,-23.51971 20.57974,-38.21957 14.69981,-33.40867 -5.87992,4.81081 -17.6398,33.14141 -3.20722,45.97035 24.85605,21.11427 60.13562,26.99419 109.84778,-39.28862 49.540932,-66.05482 -43.56496,-42.76312 -43.56496,-42.76312 z"
       id="path1148"
       inkscape:connector-curvature="0"
       sodipodi:nodetypes="cscssscsccscc"
       inkscape:export-xdpi="96"
       inkscape:export-ydpi="96" />
    <path
       style="display:inline;fill:#f4e3d7;stroke:#000000;stroke-width:3.16499996;stroke-linecap:butt;stroke-linejoin:miter;stroke-miterlimit:4;stroke-dasharray:none;stroke-opacity:1"
       d="m -191.22974,-77.789556 c 0,0 -4.17356,194.010436 25.97101,260.860746 6.03587,13.38549 15.23437,19.77795 32.07234,28.33056 22.82134,11.59179 31.00327,14.9671 35.814095,35.27959 4.81083,20.31249 4.81083,50.78119 4.81083,50.78119 0,0 -27.935635,11.70006 -52.667405,47.85661 -14.31623,20.92958 82.608927,28.01448 121.511472,26.56687 42.535038,-1.58279 14.9554891,-49.04338 -12.45039,-73.91347 -6.34469,-32.00503 -7.21627,-76.94906 -7.21627,-76.94906 0,0 52.3847886,-10.15627 57.195648,-53.45393 4.81084,-43.29774 53.988452,-124.547795 53.988452,-124.547795 0,0 -172.655852,-137.910905 -214.349902,-130.961934 -41.69404,6.948971 -44.67988,10.150623 -44.67988,10.150623 z"
       id="path1146"
       inkscape:connector-curvature="0"
       sodipodi:nodetypes="cssscssccscsc"
       inkscape:export-xdpi="96"
       inkscape:export-ydpi="96" />
    <path
       style="display:inline;fill:#ffaaaa;stroke:#000000;stroke-width:3.10000014;stroke-linecap:butt;stroke-linejoin:miter;stroke-miterlimit:4;stroke-dasharray:none;stroke-opacity:1"
       d="m 31.98593,89.526637 c 0,0 -20.84702,10.15626 -19.77795,47.039663 1.06908,36.88319 2.67269,36.88319 0,43.29767 -2.6726897,6.41445 -22.225938,36.31774 -55.592038,41.15951 1.40771,19.58282 0.8739,23.65481 1.68976,33.14139 16.69087,-0.52975 25.80029,-2.1994 54.598948,17.14328 25.274334,16.97551 45.174502,14.35801 52.411702,-3.50465 6.34404,-15.65822 0.34554,-24.86395 0.34554,-24.86395 0,0 -1.79636,35.44718 20.51818,42.5853 16.878288,5.39911 56.338048,4.74405 76.930298,-28.94111 15.10893,-24.71539 4.43331,-41.27222 -9.6597,-44.11289 -14.47101,-3.59664 -54.334214,5.72336 -29.21073,11.06874 25.12342,5.3454 45.65731,-3.58521 55.81355,-22.82862 10.15625,-19.24339 8.26638,-65.51575 -13.70904,-81.43345 -21.68414,-15.70673 -47.91409,-9.84873 -55.39766,0.30757 C 103.46317,129.74138 79.719072,62.636107 77.135502,21.553075 75.915082,2.14653 62.512882,-41.990573 53.675052,-58.519372 42.169776,-80.036854 8.2732812,-137.41166 -55.781298,-143.25147 -110.9728,-148.28326 -170.52454,-106.22462 -191.22974,-77.789556 -119.70874,-5.8871854 -46.192018,-11.343713 5.3294027,22.331275 61.372182,58.961487 31.98593,89.526637 31.98593,89.526637 Z"
       id="path1150"
       inkscape:connector-curvature="0"
       sodipodi:nodetypes="cssccsscsscssssssscsc"
       inkscape:export-xdpi="96"
       inkscape:export-ydpi="96" />
    <path
       style="display:inline;fill:#f4e3d7;stroke:#000000;stroke-width:3.10000014;stroke-linecap:round;stroke-linejoin:miter;stroke-miterlimit:4;stroke-dasharray:none;stroke-opacity:1"
       d="m 11.75406,37.061862 c 0,0 24.001472,-5.291674 30.616057,12.851195 6.614583,18.14285 0.94496,28.34821 -0.188971,30.99404 -1.13395,2.64584 -10.961316,12.47321 -24.190486,8.31547"
       id="path1152"
       inkscape:connector-curvature="0"
       inkscape:export-xdpi="96"
       inkscape:export-ydpi="96" />
    <path
       style="display:inline;fill:none;stroke:#000000;stroke-width:3.10000014;stroke-linecap:round;stroke-linejoin:miter;stroke-miterlimit:4;stroke-dasharray:none;stroke-opacity:1"
       d="m 16.28976,55.204707 c 0,0 25.135426,2.83484 9.26042,22.4896"
       id="path1154"
       inkscape:connector-curvature="0"
       inkscape:export-xdpi="96"
       inkscape:export-ydpi="96" />
    <path
       style="display:inline;fill:none;stroke:#000000;stroke-width:3.10000014;stroke-linecap:round;stroke-linejoin:miter;stroke-miterlimit:4;stroke-dasharray:none;stroke-opacity:1"
       d="m -160.03588,15.139225 c 0,0 -16.25296,-21.1666504 -26.83629,-0.75595"
       id="path1156"
       inkscape:connector-curvature="0"
       inkscape:export-xdpi="96"
       inkscape:export-ydpi="96" />
    <path
       style="display:inline;fill:none;stroke:#000000;stroke-width:3.10000014;stroke-linecap:round;stroke-linejoin:miter;stroke-miterlimit:4;stroke-dasharray:none;stroke-opacity:1"
       d="m -91.433231,4.1779188 c 0,0 12.587101,-16.1501218 35.373003,0.1130197"
       id="path1158"
       inkscape:connector-curvature="0"
       sodipodi:nodetypes="cc"
       inkscape:export-xdpi="96"
       inkscape:export-ydpi="96" />
    <path
       style="display:inline;fill:none;stroke:#000000;stroke-width:6;stroke-linecap:round;stroke-linejoin:miter;stroke-miterlimit:4;stroke-dasharray:none;stroke-opacity:1"
       d="m -74.802384,14.761255 c 0,0 3.801039,18.402264 7.748465,29.48215"
       id="path1160"
       inkscape:connector-curvature="0"
       sodipodi:nodetypes="cc"
       inkscape:export-xdpi="96"
       inkscape:export-ydpi="96" />
    <path
       style="display:inline;fill:none;stroke:#000000;stroke-width:6;stroke-linecap:round;stroke-linejoin:miter;stroke-miterlimit:4;stroke-dasharray:none;stroke-opacity:1"
       d="m -171.94213,24.777625 c 0,0 5.48067,19.654761 8.31548,23.623512"
       id="path1162"
       inkscape:connector-curvature="0"
       sodipodi:nodetypes="cc"
       inkscape:export-xdpi="96"
       inkscape:export-ydpi="96" />
    <path
       style="display:inline;fill:none;stroke:#000000;stroke-width:3.10000014;stroke-linecap:round;stroke-linejoin:miter;stroke-miterlimit:4;stroke-dasharray:none;stroke-opacity:1"
       d="m -129.79776,51.802937 c 0,0 -1e-5,13.79612 -4.72471,29.67113 -7.55953,9.07142 11.1503,20.410723 15.11905,20.977683"
       id="path1164"
       inkscape:connector-curvature="0"
       sodipodi:nodetypes="ccc"
       inkscape:export-xdpi="96"
       inkscape:export-ydpi="96" />
    <path
       style="display:inline;fill:#800000;stroke:#000000;stroke-width:3.10000014;stroke-linecap:round;stroke-linejoin:miter;stroke-miterlimit:4;stroke-dasharray:none;stroke-opacity:1"
       d="m -118.22225,155.27412 c 11.3621,1.91633 31.115945,-9.79445 28.77338,-15.78052 -6.911811,-1.02854 -13.51258,8.59899 -15.59147,7.84302 -2.07886,-0.75594 -3.96875,-1.74813 -7.18156,-3.59076 -2.69306,-0.47247 -12.28421,-1.13393 -13.98511,-0.0945 -1.48673,0.90858 -4.34672,2.64583 -7.37054,0.94493 -3.02379,-1.70087 -5.90588,-4.25222 -8.55169,-4.01598 5.56058,10.5682 16.09784,15.95668 23.90699,14.69382 z"
       id="path1166"
       inkscape:connector-curvature="0"
       sodipodi:nodetypes="ccscsccc"
       inkscape:export-xdpi="96"
       inkscape:export-ydpi="96" />
    <path
       style="display:inline;fill:none;stroke:#000000;stroke-width:6;stroke-linecap:round;stroke-linejoin:miter;stroke-miterlimit:4;stroke-dasharray:none;stroke-opacity:1"
       d="m -126.77397,166.70791 c 6.99256,0.18899 7.37055,0.18899 7.37055,0.18899"
       id="path1168"
       inkscape:connector-curvature="0"
       inkscape:export-xdpi="96"
       inkscape:export-ydpi="96" />
    <path
       style="display:inline;fill:#216778;stroke:#000000;stroke-width:3.20000005;stroke-linecap:butt;stroke-linejoin:miter;stroke-miterlimit:4;stroke-dasharray:none;stroke-opacity:1"
       d="m -145.48078,346.3729 c 0,0 -30.60237,63.2092 -35.14596,77.90905 -4.54358,14.6998 208.20273,21.51518 219.828945,8.81991 11.626226,-12.69534 -42.4958669,-86.99624 -42.4958669,-86.99624 z"
       id="path1189"
       inkscape:connector-curvature="0"
       inkscape:export-xdpi="96"
       inkscape:export-ydpi="96" />
  </g>
</svg>
