<?xml version="1.0" encoding="UTF-8" standalone="no"?>
<!-- Created with Inkscape (http://www.inkscape.org/) -->

<svg
   xmlns:dc="http://purl.org/dc/elements/1.1/"
   xmlns:cc="http://creativecommons.org/ns#"
   xmlns:rdf="http://www.w3.org/1999/02/22-rdf-syntax-ns#"
   xmlns:svg="http://www.w3.org/2000/svg"
   xmlns="http://www.w3.org/2000/svg"
   xmlns:sodipodi="http://sodipodi.sourceforge.net/DTD/sodipodi-0.dtd"
   xmlns:inkscape="http://www.inkscape.org/namespaces/inkscape"
   width="780.1474mm"
   height="580.86694mm"
   viewBox="0 0 780.1474 580.86694"
   version="1.1"
   id="svg965"
   inkscape:version="0.92.3 (2405546, 2018-03-11)"
   sodipodi:docname="Weave2.svg">
  <defs
     id="defs959" />
  <sodipodi:namedview
     id="base"
     pagecolor="#ffffff"
     bordercolor="#666666"
     borderopacity="1.0"
     inkscape:pageopacity="0.0"
     inkscape:pageshadow="2"
     inkscape:zoom="0.35"
     inkscape:cx="1060.0172"
     inkscape:cy="1109.614"
     inkscape:document-units="mm"
     inkscape:current-layer="layer1"
     showgrid="false"
     inkscape:window-width="2400"
     inkscape:window-height="1271"
     inkscape:window-x="-9"
     inkscape:window-y="427"
     inkscape:window-maximized="1"
     fit-margin-top="0"
     fit-margin-left="0"
     fit-margin-right="0"
     fit-margin-bottom="0" />
  <metadata
     id="metadata962">
    <rdf:RDF>
      <cc:Work
         rdf:about="">
        <dc:format>image/svg+xml</dc:format>
        <dc:type
           rdf:resource="http://purl.org/dc/dcmitype/StillImage" />
        <dc:title></dc:title>
      </cc:Work>
    </rdf:RDF>
  </metadata>
  <g
     inkscape:label="Layer 1"
     inkscape:groupmode="layer"
     id="layer1"
     style="display:inline"
     transform="translate(254.18303,-31.476765)" />
  <g
     inkscape:groupmode="layer"
     id="layer3"
     inkscape:label="Layer 2"
     transform="translate(254.18303,-31.476765)">
    <path
       style="fill:#ffffff;stroke:#000000;stroke-width:1.36500001;stroke-linecap:butt;stroke-linejoin:miter;stroke-miterlimit:4;stroke-dasharray:none;stroke-opacity:1"
       d="m -22.498964,287.36774 c 23.5280697,-7.15781 92.17715,-8.95593 116.93668,5.92378 32.222924,19.36497 53.314014,75.05888 59.995744,98.5786 8.77985,30.90505 51.99267,-16.21444 41.15952,-21.9161 -10.15623,-5.34538 -54.52299,-68.15373 -53.45391,-103.70058 1.01251,-33.66603 36.61592,-92.20798 52.6521,-99.9588 16.03616,-7.75081 -37.41774,-32.33961 -36.34866,-28.33057 1.06908,4.00904 -29.66044,81.507 -61.204722,99.42426 -44.999292,25.55976 -130.694802,3.20724 -130.694802,3.20724 3.80224,18.41838 -12.60658,50.19006 10.95805,46.77217 z"
       id="path1522"
       inkscape:connector-curvature="0"
       sodipodi:nodetypes="cssssssscc" />
    <path
       style="fill:#ffffff;stroke:#000000;stroke-width:1.36500001;stroke-linecap:butt;stroke-linejoin:miter;stroke-miterlimit:4;stroke-dasharray:none;stroke-opacity:1"
       d="m -180.3933,285.58359 c 23.52807,-7.15781 92.177144,-8.95593 116.936674,5.92378 32.222922,19.36497 53.314012,75.05888 59.9957417,98.5786 8.77985,30.90504 51.9926703,-16.21444 41.1595203,-21.9161 -10.15623,-5.34538 -54.52299,-68.15373 -53.45391,-103.70057 1.01251,-33.66604 36.61592,-92.20799 52.6521,-99.95881 16.03616,-7.75082 -37.4177403,-32.33962 -36.3486603,-28.33057 1.06908,4.00904 -29.6604497,81.50699 -61.2047217,99.42426 -10.48041,5.95291 -23.16831,9.30691 -36.466953,10.94967 -43.801191,5.41069 -94.227831,-7.74242 -94.227831,-7.74242 3.80223,18.41838 -12.60658,50.19005 10.95804,46.77216 z"
       id="path1522-8-0"
       inkscape:connector-curvature="0"
       sodipodi:nodetypes="csssssssscc" />
    <path
       style="fill:#ffffff;stroke:#000000;stroke-width:1.36500001;stroke-linecap:butt;stroke-linejoin:miter;stroke-miterlimit:4;stroke-dasharray:none;stroke-opacity:1"
       d="m -103.68695,146.0689 c 23.528072,-7.15781 92.933096,-13.39715 117.692626,1.48256 32.22292,19.36497 56.72333,86.52963 59.99574,98.5786 12.24935,-2.59761 28.553764,-9.73794 37.379764,-20.4042 C 96.772648,211.27985 63.945236,160.12347 60.951076,124.9546 58.093896,91.394739 97.566998,32.746605 113.60318,24.995785 129.63934,17.244975 76.185436,-7.3438254 77.254516,-3.3347823 78.323596,0.67426072 47.594066,78.172205 16.049796,96.089475 5.5693857,102.04239 -7.1185143,105.39639 -20.417164,107.03915 -64.218348,112.44984 -114.645,99.296728 -114.645,99.296728 c 3.80224,18.418382 -12.60658,50.190062 10.95805,46.772172 z"
       id="path1522-8"
       inkscape:connector-curvature="0"
       sodipodi:nodetypes="csccssssscc" />
    <path
       style="fill:#ffffff;stroke:#000000;stroke-width:1.36500001;stroke-linecap:butt;stroke-linejoin:miter;stroke-miterlimit:4;stroke-dasharray:none;stroke-opacity:1"
       d="m 49.725766,418.41654 c 23.52807,-7.15781 92.177154,-8.95593 116.936684,5.9238 32.22292,19.36496 53.31401,75.05887 59.99574,98.57859 8.77985,30.90503 51.99267,-16.21445 41.15952,-21.91611 -10.15623,-5.34538 -54.52299,-68.15373 -53.45391,-103.70056 1.01251,-33.66604 36.61592,-92.20801 52.6521,-99.95882 16.03616,-7.75082 -37.41774,-32.33962 -36.34866,-28.33057 1.06908,4.00904 -29.66045,81.507 -61.20472,99.42426 -10.48041,5.95291 -23.16831,9.30691 -36.46696,10.94967 -43.801194,5.41069 -94.227844,-7.74242 -94.227844,-7.74242 3.80224,18.41838 -12.60658,50.19006 10.95805,46.77216 z"
       id="path1522-8-0-6-5-5-6-4-8"
       inkscape:connector-curvature="0"
       sodipodi:nodetypes="csssssssscc" />
    <path
       style="fill:#ffffff;stroke:#000000;stroke-width:1.36500001;stroke-linecap:butt;stroke-linejoin:miter;stroke-miterlimit:4;stroke-dasharray:none;stroke-opacity:1"
       d="m 214.09653,153.55244 c 23.52807,-7.15781 92.17715,-8.95593 116.93668,5.92379 32.22292,19.36496 53.31401,75.05887 59.99574,98.57859 8.77985,30.90504 51.99267,-16.21444 41.15952,-21.9161 -10.15623,-5.34538 -54.52299,-68.15373 -53.45391,-103.70057 1.01251,-33.666045 36.61592,-92.207997 52.6521,-99.958815 C 447.42282,24.728521 393.96892,0.13972077 395.038,4.1487637 c 1.06908,4.0090432 -29.66045,81.5069903 -61.20472,99.4242663 -10.48041,5.95291 -23.16831,9.30691 -36.46696,10.94967 -43.80119,5.41069 -94.22784,-7.74242 -94.22784,-7.74242 3.80224,18.41838 -12.60658,50.19005 10.95805,46.77216 z"
       id="path1522-8-0-6-5"
       inkscape:connector-curvature="0"
       sodipodi:nodetypes="csssssssscc" />
    <path
       style="fill:#ffffff;stroke:#000000;stroke-width:1.36500001;stroke-linecap:butt;stroke-linejoin:miter;stroke-miterlimit:4;stroke-dasharray:none;stroke-opacity:1"
       d="m 277.70668,290.39444 c 23.52807,-7.15781 92.17715,-8.95593 116.93668,5.9238 32.22292,19.36496 53.31401,75.05887 59.99574,98.57859 8.77985,30.90503 51.99267,-16.21445 41.15952,-21.91611 -10.15623,-5.34538 -54.52299,-68.15373 -53.45391,-103.70056 1.01251,-33.66605 36.61592,-92.20801 52.6521,-99.95882 16.03616,-7.75082 -37.41774,-32.33962 -36.34866,-28.33057 1.06908,4.00904 -29.66045,81.50699 -61.20472,99.42426 -10.48041,5.95291 -23.16831,9.30691 -36.46696,10.94967 -43.80119,5.41069 -94.22784,-7.74242 -94.22784,-7.74242 3.80224,18.41838 -12.60658,50.19006 10.95805,46.77216 z"
       id="path1522-8-0-6-5-5-6"
       inkscape:connector-curvature="0"
       sodipodi:nodetypes="csssssssscc" />
    <path
       style="fill:#ffffff;stroke:#000000;stroke-width:1.36500001;stroke-linecap:butt;stroke-linejoin:miter;stroke-miterlimit:4;stroke-dasharray:none;stroke-opacity:1"
       d="m -176.38426,553.92221 c 23.52807,-7.15781 92.177157,-8.95593 116.936687,5.9238 32.222919,19.36496 53.3140087,75.05887 59.9957387,98.57859 8.7798504,30.90502 51.9926703,-16.21445 41.1595203,-21.91611 -10.15623,-5.34538 -54.52299,-68.15373 -53.45391,-103.70056 1.01251,-33.66606 36.61592,-92.20803 52.6521,-99.95884 16.03616,-7.75082 -37.4177403,-32.33962 -36.3486603,-28.33057 1.06908,4.00904 -29.6604497,81.50701 -61.2047187,99.42426 -10.48041,5.95293 -23.16831,9.30693 -36.46697,10.94969 -43.801187,5.41069 -94.227837,-7.74242 -94.227837,-7.74242 3.80224,18.41838 -12.60658,50.19006 10.95805,46.77216 z"
       id="path1522-8-0-6-5-5-6-4-8-1-3-3-8"
       inkscape:connector-curvature="0"
       sodipodi:nodetypes="csssssssscc" />
    <path
       style="fill:#ffffff;stroke:#000000;stroke-width:1.36500001;stroke-linecap:butt;stroke-linejoin:miter;stroke-miterlimit:4;stroke-dasharray:none;stroke-opacity:1"
       d="m -101.28153,425.63283 c 23.528074,-7.15781 92.1771657,-8.95593 116.936696,5.9238 32.22292,19.36496 53.31401,75.05887 59.99574,98.57859 8.77985,30.90503 51.992674,-16.21445 41.159524,-21.91611 C 106.6542,502.87373 62.287436,440.06538 63.356516,404.51855 64.369026,370.85251 97.544268,323.431 111.5674,308.1505 102.15601,295.98831 88.772486,288.84201 75.785696,286.62351 c -7.31714,18.75917 -25.78619,71.11265 -57.33046,89.02991 -10.4804099,5.95291 -23.1683103,9.30691 -36.46697,10.94967 -43.801192,5.41069 -94.227836,-7.74242 -94.227836,-7.74242 3.80224,18.41838 -12.60658,50.19006 10.95804,46.77216 z"
       id="path1522-8-0-6-5-5-6-4-8-4"
       inkscape:connector-curvature="0"
       sodipodi:nodetypes="cssssccsscc" />
    <path
       style="fill:#ffffff;stroke:#000000;stroke-width:1.36500001;stroke-linecap:butt;stroke-linejoin:miter;stroke-miterlimit:4;stroke-dasharray:none;stroke-opacity:1"
       d="m 66.912076,150.36142 c 23.52807,-7.15781 81.939844,-9.50668 106.699374,5.37303 32.22292,19.36497 53.31401,75.05888 59.99574,98.5786 8.77985,30.90504 51.99267,-16.21444 41.15952,-21.9161 C 264.61048,227.05157 220.24372,164.24322 221.3128,128.69638 222.32531,95.030332 257.92872,36.488381 273.9649,28.737563 290.00106,20.986749 236.54716,-3.6020513 237.61624,0.40699172 238.68532,4.4160347 206.06919,78.938862 176.41152,99.831248 c -7.64559,5.385952 -23.87098,7.929032 -37.2229,9.059792 -38.22604,3.23733 -42.239152,2.2266 -76.840944,-0.74986 -2.39486,7.85448 -2.42951,23.9893 4.5644,42.22024 z"
       id="path1522-8-0-6"
       inkscape:connector-curvature="0"
       sodipodi:nodetypes="csssssssscc" />
    <path
       style="fill:#ffffff;stroke:#000000;stroke-width:1.36500001;stroke-linecap:butt;stroke-linejoin:miter;stroke-miterlimit:4;stroke-dasharray:none;stroke-opacity:1"
       d="m 144.83391,285.29455 c 23.33908,-5.07894 78.85349,-5.45965 103.61302,9.42007 32.22292,19.36496 53.31401,75.05887 59.99574,98.57859 8.77985,30.90504 51.99267,-16.21444 41.15952,-21.9161 -10.15623,-5.34538 -54.52299,-68.15373 -53.45391,-103.70057 1.01251,-33.66604 34.4424,-84.99966 49.1776,-96.48431 -5.04275,-6.40653 -18.72722,-17.37949 -38.21955,-19.51068 -8.26701,22.45761 -24.31506,69.2126 -55.85933,87.12987 -10.48041,5.95291 -23.11447,9.82544 -36.46696,10.94967 -41.81681,3.52081 -60.94896,-0.9862 -69.4704,-2.26177 -4.55269,14.88293 -4.48009,23.54273 -0.47573,37.79523 z"
       id="path1522-8-0-6-5-5"
       inkscape:connector-curvature="0"
       sodipodi:nodetypes="cssssccsscc" />
    <path
       style="fill:#ffffff;stroke:#000000;stroke-width:1.36500001;stroke-linecap:butt;stroke-linejoin:miter;stroke-miterlimit:4;stroke-dasharray:none;stroke-opacity:1"
       d="m 121.62127,545.1023 c 23.52807,-7.15781 92.17715,-8.95593 116.93668,5.9238 32.22292,19.36496 53.31401,75.05887 59.99574,98.57859 8.77985,30.90503 51.99267,-16.21445 41.15952,-21.91611 -10.15623,-5.34538 -54.52299,-68.15373 -53.45391,-103.70056 1.01251,-33.66604 36.61592,-92.20801 52.6521,-99.95882 16.03616,-7.75082 -37.41774,-32.33962 -36.34866,-28.33057 1.06908,4.00904 -29.66045,81.507 -61.20472,99.42426 -10.48041,5.95291 -23.16831,9.30691 -36.46696,10.94967 -43.80119,5.41069 -94.22784,-7.74242 -94.22784,-7.74242 3.80224,18.41838 -12.606582,50.19006 10.95805,46.77216 z"
       id="path1522-8-0-6-5-5-6-4-8-1-3"
       inkscape:connector-curvature="0"
       sodipodi:nodetypes="csssssssscc" />
    <path
       style="fill:#ffffff;stroke:#000000;stroke-width:1.36500001;stroke-linecap:butt;stroke-linejoin:miter;stroke-miterlimit:4;stroke-dasharray:none;stroke-opacity:1"
       d="m 216.36832,413.6057 c 31.27889,-5.15329 79.88275,-1.60602 102.10322,8.86376 34.00814,16.02387 44.89502,76.92976 59.99574,98.57859 18.38048,26.3508 51.99267,-16.21445 41.15952,-21.91611 -10.15623,-5.34538 -67.48556,-58.59884 -66.41648,-94.14567 1.01251,-33.66605 41.12413,-87.27146 52.6521,-99.95882 -12.72675,-11.48466 -24.27306,-14.90725 -32.40644,-15.90254 -0.78346,5.95372 -20.6401,59.52407 -52.18437,77.44134 -10.48041,5.95291 -20.22835,9.70781 -33.527,11.35057 -43.80119,5.41069 -55.59502,1.38422 -69.1045,-2.53066 -4.28868,9.8495 -6.05848,23.46311 -2.27179,38.21954 z"
       id="path1522-8-0-6-5-5-6-4"
       inkscape:connector-curvature="0"
       sodipodi:nodetypes="cssssccsscc" />
    <path
       style="fill:#ffffff;stroke:#000000;stroke-width:1.36500001;stroke-linecap:butt;stroke-linejoin:miter;stroke-miterlimit:4;stroke-dasharray:none;stroke-opacity:1"
       d="m -10.684544,544.29215 c 23.52808,-7.15781 78.28653,-4.13673 103.04606,10.743 32.222924,19.36496 53.314014,75.05887 59.995744,98.57859 8.77985,30.90503 51.99267,-16.21445 41.15952,-21.91611 -10.15623,-5.34538 -54.52299,-68.15373 -53.45391,-103.70056 1.01251,-33.66604 31.7697,-76.38022 39.68953,-93.3439 -10.65541,-10.21512 -17.25724,-13.77135 -31.73826,-17.23888 -2.38708,9.82912 -21.30828,63.80039 -52.852554,81.71765 -10.48041,5.95291 -23.14821,9.47873 -36.46696,10.94967 -34.44628,3.80429 -55.4116103,-2.6871 -64.3110303,-4.05715 -6.8205397,15.73337 -6.4266697,31.38574 -5.0681397,38.26769 z"
       id="path1522-8-0-6-5-5-6-4-8-1"
       inkscape:connector-curvature="0"
       sodipodi:nodetypes="cssssccsscc" />
    <path
       style="fill:#ffffff;stroke:#000000;stroke-width:1.36500001;stroke-linecap:butt;stroke-linejoin:miter;stroke-miterlimit:4;stroke-dasharray:none;stroke-opacity:1"
       d="m 287.40205,536.29028 c 11.9053,-0.82671 76.86911,-4.42022 101.62864,10.45951 32.22292,19.36496 53.31401,75.05887 59.99574,98.57859 8.77985,30.90503 51.99267,-16.21445 41.15952,-21.91611 -10.15623,-5.34538 -54.52299,-68.15373 -53.45391,-103.70056 1.01251,-33.66605 36.61592,-92.20802 52.6521,-99.95883 16.03616,-7.75082 -37.41774,-32.33962 -36.34866,-28.33057 1.06908,4.00904 -29.66045,81.50701 -61.20472,99.42426 -10.48041,5.95292 -23.16831,9.30692 -36.46696,10.94968 -43.80119,5.41069 -47.34182,2.51008 -64.55671,-1.31682 -3.13528,9.68574 -6.08649,24.39318 -3.40504,35.81085 z"
       id="path1522-8-0-6-5-5-6-4-8-1-3-3"
       inkscape:connector-curvature="0"
       sodipodi:nodetypes="csssssssscc" />
    <path
       style="fill:#ffffff;stroke:#000000;stroke-width:1.36500001;stroke-linecap:butt;stroke-linejoin:miter;stroke-miterlimit:4;stroke-dasharray:none;stroke-opacity:1"
       d="m -334.34054,554.18948 c 23.52807,-7.15781 92.17715,-8.95593 116.93668,5.9238 32.22292,19.36496 53.31401,75.05887 59.99573,98.57859 8.77986,30.90501 51.99268,-16.21445 41.15952,-21.91611 -10.15622,-5.34538 -54.52298,-68.15373 -53.4539,-103.70056 1.01251,-33.66606 36.61591,-92.20803 52.6521,-99.95884 16.03616,-7.75082 -37.41774,-32.33962 -36.34866,-28.33057 1.06907,4.00904 -29.66045,81.50701 -61.20472,99.42426 -10.48041,5.95293 -23.16831,9.30693 -36.46697,10.94969 -43.80118,5.41069 -94.22783,-7.74242 -94.22783,-7.74242 3.80224,18.41838 -12.60658,50.19006 10.95805,46.77216 z"
       id="path1522-8-0-6-5-5-6-4-8-1-3-3-8-4"
       inkscape:connector-curvature="0"
       sodipodi:nodetypes="csssssssscc" />
    <path
       style="fill:#ffffff;stroke:#000000;stroke-width:1.36500001;stroke-linecap:butt;stroke-linejoin:miter;stroke-miterlimit:4;stroke-dasharray:none;stroke-opacity:1"
       d="m -341.02229,276.76371 c 23.52807,-7.15781 92.17717,-8.95593 116.9367,5.9238 32.22291,19.36496 53.314,75.05887 59.99572,98.57859 8.77986,30.90501 51.99268,-16.21445 41.15952,-21.91611 -10.15622,-5.34538 -54.52298,-68.15373 -53.4539,-103.70056 1.01251,-33.66606 36.61591,-92.20803 52.6521,-99.95884 16.03616,-7.75082 -37.41774,-32.33962 -36.34866,-28.33057 1.06907,4.00904 -29.66045,81.50701 -61.20471,99.42426 -10.48041,5.95293 -23.16831,9.30693 -36.46698,10.94969 -43.80119,5.41069 -94.22784,-7.74242 -94.22784,-7.74242 3.80224,18.41838 -12.60658,50.19006 10.95805,46.77216 z"
       id="path1522-8-0-6-5-5-6-4-8-1-3-3-8-24"
       inkscape:connector-curvature="0"
       sodipodi:nodetypes="csssssssscc" />
    <path
       style="fill:#ffffff;stroke:#000000;stroke-width:1.36500001;stroke-linecap:butt;stroke-linejoin:miter;stroke-miterlimit:4;stroke-dasharray:none;stroke-opacity:1"
       d="m -254.9615,417.08021 c 23.52807,-7.15781 92.17716,-8.95593 116.93669,5.9238 32.22292,19.36496 57.101297,68.29227 63.869984,87.80627 3.55589,-0.70773 20.003998,-3.49748 34.166962,-21.91611 -15.886144,-15.67831 -51.404678,-57.38141 -50.335597,-92.92824 1.01251,-33.66606 41.409447,-85.85339 44.053137,-89.47 -6.616718,-7.96334 -15.309694,-16.13946 -32.285412,-20.96003 -0.155778,2.83344 -25.124734,63.64763 -56.669004,81.56488 -10.48041,5.95293 -23.16831,9.30693 -36.46697,10.94969 -43.80119,5.41069 -94.22784,-7.74242 -94.22784,-7.74242 3.80224,18.41838 -12.60658,50.19006 10.95805,46.77216 z"
       id="path1522-8-0-6-5-5-6-4-8-1-3-3-8-2"
       inkscape:connector-curvature="0"
       sodipodi:nodetypes="csccsccsscc" />
    <path
       style="fill:#ffffff;stroke:#000000;stroke-width:1.36500001;stroke-linecap:butt;stroke-linejoin:miter;stroke-miterlimit:4;stroke-dasharray:none;stroke-opacity:1"
       d="m -266.45409,140.45625 c 23.52807,-7.15781 92.17716,-8.95593 116.93669,5.9238 32.22292,19.36496 59.841624,79.72605 59.995728,98.57859 20.589137,-2.31677 34.88681,-12.14368 42.246198,-20.59319 -13.533484,-18.09371 -55.609656,-69.47665 -54.540576,-105.02348 1.01251,-33.666068 36.615908,-92.208039 52.652098,-99.958849 16.036158,-7.75082 -37.41774,-32.33962 -36.34866,-28.3305704 1.06907,4.00904 -29.660448,81.5070104 -61.204718,99.4242614 -10.48041,5.95293 -23.16831,9.306926 -36.46697,10.949688 -43.80119,5.4107 -94.22784,-7.742418 -94.22784,-7.742418 3.80224,18.418388 -12.60658,50.190068 10.95805,46.772168 z"
       id="path1522-8-0-6-5-5-6-4-8-1-3-3-8-5"
       inkscape:connector-curvature="0"
       sodipodi:nodetypes="csccssssscc" />
    <path
       style="fill:#ffffff;stroke:#000000;stroke-width:1.36500001;stroke-linecap:butt;stroke-linejoin:miter;stroke-miterlimit:4;stroke-dasharray:none;stroke-opacity:1"
       d="m 354.84816,418.02572 c 27.11884,-7.44129 88.77535,-8.95593 113.53488,5.9238 32.22292,19.36496 53.31401,75.05887 59.99574,98.57859 8.77985,30.90504 51.99267,-16.21445 41.15952,-21.91611 -10.15623,-5.34538 -54.52299,-68.15373 -53.45391,-103.70056 1.01251,-33.66605 36.61592,-92.20801 52.6521,-99.95882 16.03616,-7.75082 -37.41774,-32.33962 -36.34866,-28.33057 1.06908,4.00904 -29.66045,81.50699 -61.20472,99.42426 -10.48041,5.95291 -23.16831,9.30691 -36.46695,10.94967 -43.80119,5.41069 -60.50499,0.81093 -73.91162,-3.01772 -6.03609,13.36927 -9.96075,30.62979 -5.95638,42.04746 z"
       id="path1522-8-0-6-5-5-6-4-2"
       inkscape:connector-curvature="0"
       sodipodi:nodetypes="csssssssscc" />
    <path
       style="fill:#ffffff;stroke:#000000;stroke-width:1.36500001;stroke-linecap:butt;stroke-linejoin:miter;stroke-miterlimit:4;stroke-dasharray:none;stroke-opacity:1"
       d="m 382.27407,153.03755 c 23.52807,-7.15781 59.83754,-6.28324 84.59707,8.59649 32.22292,19.36496 53.31401,75.05887 59.99574,98.57859 8.77985,30.90504 51.99267,-16.21445 41.15952,-21.91611 -10.15623,-5.34538 -54.52299,-68.15373 -53.45391,-103.70056 1.01251,-33.66605 36.61592,-92.208014 52.6521,-99.958824 16.03616,-7.75082 -37.41774,-32.3396203 -36.34866,-28.3305703 1.06908,4.0090403 -30.33732,80.3645313 -61.20472,99.4242643 -8.34225,5.1511 -17.74984,8.21298 -31.12157,9.07878 -29.90317,1.93619 -42.63246,0.44877 -56.27557,-1.06068 -4.28867,14.25945 -4.32122,25.33399 0,39.28862 z"
       id="path1522-8-0-6-5-5-6-4-3"
       inkscape:connector-curvature="0"
       sodipodi:nodetypes="csssssssscc" />
  </g>
</svg>
