<?xml version="1.0" encoding="UTF-8" standalone="no"?>
<!DOCTYPE svg PUBLIC "-//W3C//DTD SVG 1.1//EN"
 "http://www.w3.org/Graphics/SVG/1.1/DTD/svg11.dtd">
<!-- Generated by graphviz version 2.38.0 (20140413.2041)
 -->
<!-- Title: %3 Pages: 1 -->
<svg width="251pt" height="188pt"
 viewBox="0.00 0.00 251.04 188.00" xmlns="http://www.w3.org/2000/svg" xmlns:xlink="http://www.w3.org/1999/xlink">
<g id="graph0" class="graph" transform="scale(1 1) rotate(0) translate(4 184)">
<title>%3</title>
<polygon fill="white" stroke="none" points="-4,4 -4,-184 247.04,-184 247.04,4 -4,4"/>
<!-- User Interface -->
<g id="node1" class="node"><title>User Interface</title>
<ellipse fill="none" stroke="black" cx="70.8437" cy="-162" rx="61.99" ry="18"/>
<text text-anchor="middle" x="70.8437" y="-158.3" font-family="Times New Roman,serif" font-size="14.00">User Interface</text>
</g>
<!-- Business Logic -->
<g id="node2" class="node"><title>Business Logic</title>
<ellipse fill="none" stroke="black" cx="70.8437" cy="-90" rx="66.0889" ry="18"/>
<text text-anchor="middle" x="70.8437" y="-86.3" font-family="Times New Roman,serif" font-size="14.00">Business Logic</text>
</g>
<!-- User Interface&#45;&gt;Business Logic -->
<g id="edge1" class="edge"><title>User Interface&#45;&gt;Business Logic</title>
<path fill="none" stroke="black" d="M70.8437,-143.697C70.8437,-135.983 70.8437,-126.712 70.8437,-118.112"/>
<polygon fill="black" stroke="black" points="74.3438,-118.104 70.8437,-108.104 67.3438,-118.104 74.3438,-118.104"/>
</g>
<!-- Data Persistance -->
<g id="node3" class="node"><title>Data Persistance</title>
<ellipse fill="none" stroke="black" cx="70.8437" cy="-18" rx="70.6878" ry="18"/>
<text text-anchor="middle" x="70.8437" y="-14.3" font-family="Times New Roman,serif" font-size="14.00">Data Persistance</text>
</g>
<!-- Business Logic&#45;&gt;Data Persistance -->
<g id="edge2" class="edge"><title>Business Logic&#45;&gt;Data Persistance</title>
<path fill="none" stroke="black" d="M70.8437,-71.6966C70.8437,-63.9827 70.8437,-54.7125 70.8437,-46.1124"/>
<polygon fill="black" stroke="black" points="74.3438,-46.1043 70.8437,-36.1043 67.3438,-46.1044 74.3438,-46.1043"/>
</g>
<!-- Website -->
<g id="node4" class="node"><title>Website</title>
<ellipse fill="none" stroke="black" cx="198.844" cy="-162" rx="40.0939" ry="18"/>
<text text-anchor="middle" x="198.844" y="-158.3" font-family="Times New Roman,serif" font-size="14.00">Website</text>
</g>
<!-- Database -->
<g id="node5" class="node"><title>Database</title>
<ellipse fill="none" stroke="black" cx="198.844" cy="-90" rx="44.393" ry="18"/>
<text text-anchor="middle" x="198.844" y="-86.3" font-family="Times New Roman,serif" font-size="14.00">Database</text>
</g>
<!-- Website&#45;&gt;Database -->
<g id="edge3" class="edge"><title>Website&#45;&gt;Database</title>
<path fill="none" stroke="black" d="M198.844,-143.697C198.844,-135.983 198.844,-126.712 198.844,-118.112"/>
<polygon fill="black" stroke="black" points="202.344,-118.104 198.844,-108.104 195.344,-118.104 202.344,-118.104"/>
</g>
</g>
</svg>
