<?xml version="1.0" encoding="UTF-8" standalone="no"?>
<!DOCTYPE svg PUBLIC "-//W3C//DTD SVG 1.1//EN"
 "http://www.w3.org/Graphics/SVG/1.1/DTD/svg11.dtd">
<!-- Generated by graphviz version 2.38.0 (20140413.2041)
 -->
<!-- Title: %3 Pages: 1 -->
<svg width="309pt" height="243pt"
 viewBox="0.00 0.00 309.00 243.00" xmlns="http://www.w3.org/2000/svg" xmlns:xlink="http://www.w3.org/1999/xlink">
<g id="graph0" class="graph" transform="scale(1 1) rotate(0) translate(4 239)">
<title>%3</title>
<polygon fill="white" stroke="none" points="-4,4 -4,-239 305,-239 305,4 -4,4"/>
<g id="clust1" class="cluster"><title>cluster1</title>
<polygon fill="none" stroke="black" points="8,-8 8,-227 166,-227 166,-8 8,-8"/>
<text text-anchor="middle" x="87" y="-211.8" font-family="Times New Roman,serif" font-size="14.00">Logical concepts</text>
</g>
<g id="clust2" class="cluster"><title>cluster2</title>
<polygon fill="none" stroke="black" points="174,-80 174,-227 293,-227 293,-80 174,-80"/>
<text text-anchor="middle" x="233.5" y="-211.8" font-family="Times New Roman,serif" font-size="14.00">Tangible concepts</text>
</g>
<!-- User Interface -->
<g id="node1" class="node"><title>User Interface</title>
<ellipse fill="none" stroke="black" cx="94" cy="-178" rx="61.99" ry="18"/>
<text text-anchor="middle" x="94" y="-174.3" font-family="Times New Roman,serif" font-size="14.00">User Interface</text>
</g>
<!-- Business Logic -->
<g id="node2" class="node"><title>Business Logic</title>
<ellipse fill="none" stroke="black" cx="92" cy="-106" rx="66.0889" ry="18"/>
<text text-anchor="middle" x="92" y="-102.3" font-family="Times New Roman,serif" font-size="14.00">Business Logic</text>
</g>
<!-- User Interface&#45;&gt;Business Logic -->
<g id="edge1" class="edge"><title>User Interface&#45;&gt;Business Logic</title>
<path fill="none" stroke="black" d="M93.5056,-159.697C93.2852,-151.983 93.0204,-142.712 92.7746,-134.112"/>
<polygon fill="black" stroke="black" points="96.273,-134 92.4887,-124.104 89.2758,-134.2 96.273,-134"/>
</g>
<!-- Data Persistance -->
<g id="node3" class="node"><title>Data Persistance</title>
<ellipse fill="none" stroke="black" cx="87" cy="-34" rx="70.6878" ry="18"/>
<text text-anchor="middle" x="87" y="-30.3" font-family="Times New Roman,serif" font-size="14.00">Data Persistance</text>
</g>
<!-- Business Logic&#45;&gt;Data Persistance -->
<g id="edge2" class="edge"><title>Business Logic&#45;&gt;Data Persistance</title>
<path fill="none" stroke="black" d="M90.764,-87.6966C90.2131,-79.9827 89.5509,-70.7125 88.9366,-62.1124"/>
<polygon fill="black" stroke="black" points="92.4254,-61.8295 88.2217,-52.1043 85.4432,-62.3283 92.4254,-61.8295"/>
</g>
<!-- Database -->
<g id="node5" class="node"><title>Database</title>
<ellipse fill="none" stroke="black" cx="226" cy="-106" rx="44.393" ry="18"/>
<text text-anchor="middle" x="226" y="-102.3" font-family="Times New Roman,serif" font-size="14.00">Database</text>
</g>
<!-- Data Persistance&#45;&gt;Database -->
<g id="edge7" class="edge"><title>Data Persistance&#45;&gt;Database</title>
<path fill="none" stroke="black" d="M117.59,-50.4051C138.946,-61.1596 167.533,-75.556 189.989,-86.8651"/>
<polygon fill="black" stroke="black" points="188.694,-90.1314 199.199,-91.5033 191.842,-83.8794 188.694,-90.1314"/>
</g>
<!-- Website -->
<g id="node4" class="node"><title>Website</title>
<ellipse fill="none" stroke="black" cx="224" cy="-178" rx="40.0939" ry="18"/>
<text text-anchor="middle" x="224" y="-174.3" font-family="Times New Roman,serif" font-size="14.00">Website</text>
</g>
<!-- Website&#45;&gt;User Interface -->
<g id="edge4" class="edge"><title>Website&#45;&gt;User Interface</title>
<path fill="none" stroke="black" d="M183.597,-178C177.838,-178 172.079,-178 166.32,-178"/>
<polygon fill="black" stroke="black" points="165.953,-174.5 155.953,-178 165.953,-181.5 165.953,-174.5"/>
</g>
<!-- Website&#45;&gt;Business Logic -->
<g id="edge5" class="edge"><title>Website&#45;&gt;Business Logic</title>
<path fill="none" stroke="black" d="M198.861,-163.669C179.269,-153.279 151.758,-138.69 129.557,-126.916"/>
<polygon fill="black" stroke="black" points="131.191,-123.822 120.717,-122.229 127.912,-130.006 131.191,-123.822"/>
</g>
<!-- Website&#45;&gt;Data Persistance -->
<g id="edge6" class="edge"><title>Website&#45;&gt;Data Persistance</title>
<path fill="none" stroke="black" d="M245.954,-162.651C258.178,-153.284 272.256,-139.865 279,-124 286.651,-106.003 291.148,-95.3246 279,-80 264.257,-61.4021 209.172,-49.7501 161.763,-42.9752"/>
<polygon fill="black" stroke="black" points="162.164,-39.4975 151.781,-41.6028 161.211,-46.4323 162.164,-39.4975"/>
</g>
<!-- Website&#45;&gt;Database -->
<g id="edge3" class="edge"><title>Website&#45;&gt;Database</title>
<path fill="none" stroke="black" d="M224.494,-159.697C224.715,-151.983 224.98,-142.712 225.225,-134.112"/>
<polygon fill="black" stroke="black" points="228.724,-134.2 225.511,-124.104 221.727,-134 228.724,-134.2"/>
</g>
</g>
</svg>
