<?xml version="1.0" encoding="UTF-8" standalone="no"?>
<!DOCTYPE svg PUBLIC "-//W3C//DTD SVG 1.1//EN"
 "http://www.w3.org/Graphics/SVG/1.1/DTD/svg11.dtd">
<!-- Generated by graphviz version 2.38.0 (20140413.2041)
 -->
<!-- Title: %3 Pages: 1 -->
<svg width="230pt" height="332pt"
 viewBox="0.00 0.00 229.94 332.00" xmlns="http://www.w3.org/2000/svg" xmlns:xlink="http://www.w3.org/1999/xlink">
<g id="graph0" class="graph" transform="scale(1 1) rotate(0) translate(4 328)">
<title>%3</title>
<polygon fill="white" stroke="none" points="-4,4 -4,-328 225.941,-328 225.941,4 -4,4"/>
<!-- User Interface -->
<g id="node1" class="node"><title>User Interface</title>
<ellipse fill="none" stroke="black" cx="61.7445" cy="-234" rx="61.99" ry="18"/>
<text text-anchor="middle" x="61.7445" y="-230.3" font-family="Times New Roman,serif" font-size="14.00">User Interface</text>
</g>
<!-- Business Logic -->
<g id="node2" class="node"><title>Business Logic</title>
<ellipse fill="none" stroke="black" cx="95.7445" cy="-162" rx="66.0889" ry="18"/>
<text text-anchor="middle" x="95.7445" y="-158.3" font-family="Times New Roman,serif" font-size="14.00">Business Logic</text>
</g>
<!-- User Interface&#45;&gt;Business Logic -->
<g id="edge1" class="edge"><title>User Interface&#45;&gt;Business Logic</title>
<path fill="none" stroke="black" d="M69.975,-216.055C73.843,-208.091 78.545,-198.411 82.8684,-189.51"/>
<polygon fill="black" stroke="black" points="86.1328,-190.8 87.3537,-180.275 79.8363,-187.741 86.1328,-190.8"/>
</g>
<!-- Data Persistance -->
<g id="node3" class="node"><title>Data Persistance</title>
<ellipse fill="none" stroke="black" cx="128.745" cy="-90" rx="70.6878" ry="18"/>
<text text-anchor="middle" x="128.745" y="-86.3" font-family="Times New Roman,serif" font-size="14.00">Data Persistance</text>
</g>
<!-- Business Logic&#45;&gt;Data Persistance -->
<g id="edge2" class="edge"><title>Business Logic&#45;&gt;Data Persistance</title>
<path fill="none" stroke="black" d="M103.733,-144.055C107.487,-136.091 112.051,-126.411 116.247,-117.51"/>
<polygon fill="black" stroke="black" points="119.502,-118.813 120.6,-108.275 113.17,-115.828 119.502,-118.813"/>
</g>
<!-- Database -->
<g id="node5" class="node"><title>Database</title>
<ellipse fill="none" stroke="black" cx="177.745" cy="-18" rx="44.393" ry="18"/>
<text text-anchor="middle" x="177.745" y="-14.3" font-family="Times New Roman,serif" font-size="14.00">Database</text>
</g>
<!-- Data Persistance&#45;&gt;Database -->
<g id="edge7" class="edge"><title>Data Persistance&#45;&gt;Database</title>
<path fill="none" stroke="black" d="M140.606,-72.055C146.444,-63.7147 153.601,-53.4908 160.068,-44.2517"/>
<polygon fill="black" stroke="black" points="163.125,-45.9885 165.992,-35.789 157.39,-41.9742 163.125,-45.9885"/>
</g>
<!-- Website -->
<g id="node4" class="node"><title>Website</title>
<ellipse fill="none" stroke="black" cx="170.745" cy="-306" rx="40.0939" ry="18"/>
<text text-anchor="middle" x="170.745" y="-302.3" font-family="Times New Roman,serif" font-size="14.00">Website</text>
</g>
<!-- Website&#45;&gt;User Interface -->
<g id="edge4" class="edge"><title>Website&#45;&gt;User Interface</title>
<path fill="none" stroke="black" d="M148.687,-290.834C133.219,-280.901 112.268,-267.447 94.8094,-256.234"/>
<polygon fill="black" stroke="black" points="96.3508,-253.065 86.0452,-250.606 92.5682,-258.955 96.3508,-253.065"/>
</g>
<!-- Website&#45;&gt;Business Logic -->
<g id="edge5" class="edge"><title>Website&#45;&gt;Business Logic</title>
<path fill="none" stroke="black" d="M164.728,-288.114C157.947,-269.843 146.111,-240.094 132.745,-216 127.518,-206.58 121.009,-196.771 114.913,-188.191"/>
<polygon fill="black" stroke="black" points="117.729,-186.112 109.018,-180.08 112.066,-190.227 117.729,-186.112"/>
</g>
<!-- Website&#45;&gt;Data Persistance -->
<g id="edge6" class="edge"><title>Website&#45;&gt;Data Persistance</title>
<path fill="none" stroke="black" d="M174.314,-287.941C179.837,-257.869 188.116,-193.89 170.745,-144 167.117,-133.581 160.493,-123.67 153.562,-115.298"/>
<polygon fill="black" stroke="black" points="156.157,-112.948 146.91,-107.776 150.913,-117.586 156.157,-112.948"/>
</g>
<!-- Website&#45;&gt;Database -->
<g id="edge3" class="edge"><title>Website&#45;&gt;Database</title>
<path fill="none" stroke="black" d="M180,-288.341C185.219,-278.155 191.355,-264.686 194.745,-252 215.455,-174.477 229.731,-149.448 208.745,-72 206.124,-62.3286 201.248,-52.6138 196.127,-44.1915"/>
<polygon fill="black" stroke="black" points="198.947,-42.1074 190.568,-35.6228 193.074,-45.917 198.947,-42.1074"/>
</g>
</g>
</svg>
