<?xml version="1.0" encoding="UTF-8" standalone="no"?>
<!-- Created with Inkscape (http://www.inkscape.org/) -->

<svg
   xmlns:dc="http://purl.org/dc/elements/1.1/"
   xmlns:cc="http://creativecommons.org/ns#"
   xmlns:rdf="http://www.w3.org/1999/02/22-rdf-syntax-ns#"
   xmlns:svg="http://www.w3.org/2000/svg"
   xmlns="http://www.w3.org/2000/svg"
   xmlns:sodipodi="http://sodipodi.sourceforge.net/DTD/sodipodi-0.dtd"
   xmlns:inkscape="http://www.inkscape.org/namespaces/inkscape"
   width="941.85583"
   height="727.80762"
   viewBox="0 0 249.19936 192.56577"
   version="1.1"
   id="svg882"
   inkscape:version="0.92.3 (2405546, 2018-03-11)"
   sodipodi:docname="Logo-no-text.svg"
   inkscape:export-filename="D:\Source\StacSolutionsWeb\Logo-Square.png"
   inkscape:export-xdpi="96"
   inkscape:export-ydpi="96">
  <defs
     id="defs876" />
  <sodipodi:namedview
     id="base"
     pagecolor="#ffffff"
     bordercolor="#666666"
     borderopacity="1.0"
     inkscape:pageopacity="0.0"
     inkscape:pageshadow="2"
     inkscape:zoom="0.98994949"
     inkscape:cx="62.408404"
     inkscape:cy="438.12388"
     inkscape:document-units="mm"
     inkscape:current-layer="layer1"
     showgrid="false"
     units="px"
     inkscape:window-width="2560"
     inkscape:window-height="1361"
     inkscape:window-x="-9"
     inkscape:window-y="-9"
     inkscape:window-maximized="1"
     fit-margin-top="0"
     fit-margin-left="0"
     fit-margin-right="0"
     fit-margin-bottom="0" />
  <metadata
     id="metadata879">
    <rdf:RDF>
      <cc:Work
         rdf:about="">
        <dc:format>image/svg+xml</dc:format>
        <dc:type
           rdf:resource="http://purl.org/dc/dcmitype/StillImage" />
        <dc:title />
      </cc:Work>
    </rdf:RDF>
  </metadata>
  <g
     inkscape:label="Layer 1"
     inkscape:groupmode="layer"
     id="layer1"
     transform="translate(-7.3140189,-74.428252)">
    <path
       style="fill:#f2d344;fill-opacity:1;stroke:#b3b3b3;stroke-width:6.03008842;stroke-linecap:round;stroke-miterlimit:4;stroke-dasharray:none;stroke-opacity:1"
       d="M 697.5293 2.9941406 C 679.41867 3.3774257 690.83363 30.660057 668.37695 33.123047 C 644.42317 35.750236 651.96933 2.4559938 629.51172 11.193359 C 607.05411 19.930725 635.11654 39.370942 615.68555 53.623047 C 596.25456 67.875152 586.14268 35.268866 571.0625 54.064453 C 570.27774 55.042565 569.65494 55.96877 569.12305 56.865234 C 577.72102 60.907635 586.37799 65.860973 595.06055 71.84375 C 682.77605 132.28458 695.17187 242.62305 695.17188 242.62305 C 726.56154 216.98813 758.08272 207.50766 783.44336 204.87109 C 779.3922 200.01451 776.45769 194.32783 780.26562 185.66992 C 789.9673 163.61174 815.02743 186.79411 818.68945 162.97656 C 822.35148 139.15902 791.48461 153.74089 788.85742 129.78711 C 786.23023 105.83333 819.52447 113.37949 810.78711 90.921875 C 802.04974 68.464263 782.60953 96.526694 768.35742 77.095703 C 754.10532 57.664712 786.7116 47.552836 767.91602 32.472656 C 749.12043 17.392476 746.31599 51.416523 724.25781 41.714844 C 702.19963 32.013164 725.382 6.9530413 701.56445 3.2910156 C 700.07586 3.062139 698.73667 2.9685883 697.5293 2.9941406 z "
       transform="matrix(0.26458333,0,0,0.26458333,7.3140189,74.428252)"
       id="path2677" />
    <path
       style="fill:#dededb;fill-opacity:0.98994978;stroke:#b3b3b3;stroke-width:4.79964066;stroke-linecap:round;stroke-miterlimit:4;stroke-dasharray:none;stroke-opacity:1"
       d="M 679.0332 47.257812 A 94.252495 94.553638 0 0 0 607.05469 80.779297 C 671.50244 132.54391 689.75874 211.02574 693.99609 235.11719 A 94.252495 94.553638 0 0 0 712.0957 230.30078 C 719.66921 225.42123 727.18579 221.38896 734.55273 218.07812 A 94.252495 94.553638 0 0 0 773.28516 141.81055 A 94.252495 94.553638 0 0 0 679.0332 47.257812 z "
       transform="matrix(0.26458333,0,0,0.26458333,7.3140189,74.428252)"
       id="path2695" />
    <ellipse
       style="fill:#ffffff;fill-opacity:0.98994978;stroke:#b3b3b3;stroke-width:1.92213345;stroke-linecap:round;stroke-miterlimit:4;stroke-dasharray:none;stroke-opacity:1"
       id="path2697"
       cx="187.18532"
       cy="111.43617"
       rx="4.8237338"
       ry="4.9443274" />
    <path
       style="display:inline;fill:none;fill-opacity:1;stroke:#101920;stroke-width:4.50054646;stroke-linecap:round;stroke-linejoin:miter;stroke-miterlimit:4;stroke-dasharray:none;stroke-opacity:1"
       d="M 43.550096,192.87223 C 22.048207,193.18375 12.795969,187.35625 10.230594,173.3217 3.9884386,139.1724 42.950824,139.67035 52.330798,142.46849 48.324007,131.9803 50.90176,107.20179 65.661414,98.111285 86.228405,86.269716 96.823528,109.95295 96.823528,109.95295 c 6.258792,-9.12604 36.459462,-38.203317 67.933482,-16.515933 23.20806,15.991633 26.48785,45.185113 26.48785,45.185113 18.69726,-15.26944 37.59281,-8.89686 37.59281,-8.89686 11.33176,4.07321 22.73918,14.75524 24.92053,28.68958 4.24085,28.42459 -18.67555,34.549 -25.88621,34.67054"
       id="path1987-1"
       inkscape:connector-curvature="0"
       sodipodi:nodetypes="cscccscccc"
       inkscape:export-xdpi="96"
       inkscape:export-ydpi="96" />
    <path
       style="display:inline;fill:none;stroke:#101920;stroke-width:2.16865706;stroke-linecap:round;stroke-linejoin:miter;stroke-miterlimit:4;stroke-dasharray:none;stroke-opacity:1"
       d="m 77.272041,174.3863 c 0,0 3.488609,-19.95981 -9.915757,-20.71287 -11.349305,-0.63757 -16.966913,25.5606 -11.127632,28.09457 8.813979,5.3986 15.314313,2.31347 18.8399,9.14456 3.525571,6.83078 3.745939,20.27216 0.220584,27.98438 -3.745938,5.50875 -6.390162,8.2631 -13.441345,8.04278 -6.05959,-0.77125 -12.009036,-4.29688 -11.017466,-16.63646"
       id="path1989-0"
       inkscape:connector-curvature="0"
       sodipodi:nodetypes="csccccc"
       inkscape:export-xdpi="96"
       inkscape:export-ydpi="96" />
    <path
       style="display:inline;fill:none;stroke:#101920;stroke-width:2.16865706;stroke-linecap:round;stroke-linejoin:miter;stroke-miterlimit:4;stroke-dasharray:none;stroke-opacity:1"
       d="m 100.18841,152.70522 c 0,0 -0.298763,37.53975 0.88141,57.44937 1.17441,19.81275 21.81468,23.99055 24.12834,0.85384"
       id="path1991-2"
       inkscape:connector-curvature="0"
       sodipodi:nodetypes="csc"
       inkscape:export-xdpi="96"
       inkscape:export-ydpi="96" />
    <path
       style="display:inline;fill:none;stroke:#101920;stroke-width:2.16865706;stroke-linecap:round;stroke-linejoin:miter;stroke-miterlimit:4;stroke-dasharray:none;stroke-opacity:1"
       d="m 91.815093,177.18479 17.628027,-0.66112"
       id="path1993-8"
       inkscape:connector-curvature="0"
       sodipodi:nodetypes="cc"
       inkscape:export-xdpi="96"
       inkscape:export-ydpi="96" />
    <path
       style="display:inline;fill:none;stroke:#101920;stroke-width:2.16865706;stroke-linecap:round;stroke-linejoin:miter;stroke-miterlimit:4;stroke-dasharray:none;stroke-opacity:1"
       d="m 139.63101,175.35716 c 0,0 0.22037,-23.86383 13.66164,-22.65194 12.11925,2.20353 13.22101,19.56701 13.22101,19.56701 0,0 1.87312,40.10366 2.6442,46.27348 0.44071,2.20344 5.06805,14.54305 13.22096,3.63573"
       id="path1995-1"
       inkscape:connector-curvature="0"
       sodipodi:nodetypes="ccccc"
       inkscape:export-xdpi="96"
       inkscape:export-ydpi="96" />
    <path
       style="display:inline;fill:none;stroke:#101920;stroke-width:2.16865706;stroke-linecap:butt;stroke-linejoin:miter;stroke-miterlimit:4;stroke-dasharray:none;stroke-opacity:1"
       d="m 167.36832,188.27986 c 0,0 -11.43148,-14.13469 -22.44892,-3.11715 -8.37331,8.04272 -11.51,20.0414 -7.27157,31.17945 2.9492,7.75011 13.22097,16.08551 23.35707,5.06804 8.48347,-9.25461 7.21255,-15.01605 7.21255,-15.01605"
       id="path1997-5"
       inkscape:connector-curvature="0"
       sodipodi:nodetypes="ccscc"
       inkscape:export-xdpi="96"
       inkscape:export-ydpi="96" />
    <path
       style="display:inline;fill:none;stroke:#101920;stroke-width:2.16865706;stroke-linecap:round;stroke-linejoin:miter;stroke-miterlimit:4;stroke-dasharray:none;stroke-opacity:1"
       d="m 212.74572,170.71329 c 0,0 -0.22034,-15.58422 -9.91573,-18.00807 -9.03433,-1.54246 -12.00903,20.43191 -12.00903,20.43191 0,0 -2.20348,21.04339 0.88135,40.54437 4.84773,23.35704 22.80619,10.46658 21.26374,-3.52563"
       id="path1999-4"
       inkscape:connector-curvature="0"
       sodipodi:nodetypes="ccccc"
       inkscape:export-xdpi="96"
       inkscape:export-ydpi="96" />
    <path
       style="display:inline;fill:#101920;fill-opacity:1;stroke:#101920;stroke-width:1.23395813px;stroke-linecap:butt;stroke-linejoin:miter;stroke-opacity:1"
       d="m 226.48957,188.65714 0.62325,8.41378 -5.9208,0.31155 -0.62323,-8.10215 z"
       id="path2001-3"
       inkscape:connector-curvature="0"
       inkscape:export-xdpi="96"
       inkscape:export-ydpi="96" />
    <path
       style="display:inline;fill:none;stroke:#101920;stroke-width:1.23395813px;stroke-linecap:butt;stroke-linejoin:miter;stroke-opacity:1"
       d="m 220.16948,191.7414 -3.69084,0.33066"
       id="path2003-2"
       inkscape:connector-curvature="0"
       inkscape:export-xdpi="96"
       inkscape:export-ydpi="96" />
    <path
       style="display:inline;fill:none;stroke:#101920;stroke-width:1.23395813px;stroke-linecap:butt;stroke-linejoin:miter;stroke-opacity:1"
       d="m 220.44493,195.04665 -3.58065,0.33066"
       id="path2005-8"
       inkscape:connector-curvature="0"
       sodipodi:nodetypes="cc"
       inkscape:export-xdpi="96"
       inkscape:export-ydpi="96" />
  </g>
</svg>
