<?xml version="1.0" encoding="UTF-8" standalone="no"?>
<!-- Created with Inkscape (http://www.inkscape.org/) -->

<svg
   xmlns:dc="http://purl.org/dc/elements/1.1/"
   xmlns:cc="http://creativecommons.org/ns#"
   xmlns:rdf="http://www.w3.org/1999/02/22-rdf-syntax-ns#"
   xmlns:svg="http://www.w3.org/2000/svg"
   xmlns="http://www.w3.org/2000/svg"
   xmlns:sodipodi="http://sodipodi.sourceforge.net/DTD/sodipodi-0.dtd"
   xmlns:inkscape="http://www.inkscape.org/namespaces/inkscape"
   width="1000"
   height="1000"
   viewBox="0 0 264.58333 264.58334"
   version="1.1"
   id="svg882"
   inkscape:version="0.92.3 (2405546, 2018-03-11)"
   sodipodi:docname="Logo-Square.svg"
   inkscape:export-filename="D:\Source\StacSolutionsWeb\Logo-Square.png"
   inkscape:export-xdpi="96"
   inkscape:export-ydpi="96">
  <defs
     id="defs876" />
  <sodipodi:namedview
     id="base"
     pagecolor="#ffffff"
     bordercolor="#666666"
     borderopacity="1.0"
     inkscape:pageopacity="0.0"
     inkscape:pageshadow="2"
     inkscape:zoom="0.35"
     inkscape:cx="-64.285714"
     inkscape:cy="560"
     inkscape:document-units="mm"
     inkscape:current-layer="layer1"
     showgrid="false"
     units="px"
     inkscape:window-width="1920"
     inkscape:window-height="1017"
     inkscape:window-x="-8"
     inkscape:window-y="341"
     inkscape:window-maximized="1" />
  <metadata
     id="metadata879">
    <rdf:RDF>
      <cc:Work
         rdf:about="">
        <dc:format>image/svg+xml</dc:format>
        <dc:type
           rdf:resource="http://purl.org/dc/dcmitype/StillImage" />
        <dc:title></dc:title>
      </cc:Work>
    </rdf:RDF>
  </metadata>
  <g
     inkscape:label="Layer 1"
     inkscape:groupmode="layer"
     id="layer1"
     transform="translate(0,-32.41665)">
    <g
       id="g2713"
       transform="matrix(1.80482,0,0,1.80482,-88.973462,-135.77429)"
       inkscape:export-xdpi="96"
       inkscape:export-ydpi="96">
      <path
         inkscape:transform-center-y="-0.30335717"
         inkscape:transform-center-x="1.6695303"
         d="m 169.09037,150.08625 c -2.21073,2.7554 -3.69306,-2.02459 -6.5416,0.0647 -2.84855,2.08933 1.26536,4.93913 -2.02688,6.22001 -3.29225,1.28088 -2.18598,-3.59988 -5.69757,-3.21473 -3.51158,0.38514 -1.37372,4.91009 -4.86533,4.37324 -3.49161,-0.53684 -0.0932,-4.21057 -3.32686,-5.63282 -3.23369,-1.42225 -3.64473,3.5654 -6.40013,1.35468 -2.7554,-2.21073 2.02459,-3.69306 -0.0647,-6.54161 -2.08933,-2.84855 -4.93913,1.26537 -6.22001,-2.02688 -1.28088,-3.29224 3.59988,-2.18598 3.21474,-5.69756 -0.38514,-3.51158 -4.9101,-1.37372 -4.37325,-4.86533 0.53684,-3.49161 4.21058,-0.0932 5.63282,-3.32687 1.42225,-3.23369 -3.5654,-3.64473 -1.35467,-6.40013 2.21072,-2.7554 3.69305,2.0246 6.5416,-0.0647 2.84855,-2.08934 -1.26537,-4.93913 2.02688,-6.22001 3.29224,-1.28089 2.18598,3.59987 5.69756,3.21473 3.51158,-0.38514 1.37373,-4.91009 4.86534,-4.37325 3.4916,0.53685 0.0932,4.21058 3.32686,5.63283 3.23369,1.42225 3.64473,-3.5654 6.40013,-1.35468 2.7554,2.21073 -2.0246,3.69306 0.0647,6.54161 2.08933,2.84854 4.93913,-1.26537 6.22001,2.02687 1.28088,3.29225 -3.59988,2.18599 -3.21474,5.69757 0.38514,3.51158 4.9101,1.37372 4.37325,4.86533 -0.53685,3.49161 -4.21058,0.0932 -5.63283,3.32687 -1.42225,3.23369 3.56541,3.64472 1.35468,6.40012 z"
         inkscape:randomized="0"
         inkscape:rounded="0.54"
         inkscape:flatsided="false"
         sodipodi:arg2="0.93795676"
         sodipodi:arg1="0.67615737"
         sodipodi:r2="16.012087"
         sodipodi:r1="20.528316"
         sodipodi:cy="137.23962"
         sodipodi:cx="153.07863"
         sodipodi:sides="12"
         id="path2677"
         style="fill:#f2d344;fill-opacity:1;stroke:#b3b3b3;stroke-width:0.884;stroke-linecap:round;stroke-miterlimit:4;stroke-dasharray:none;stroke-opacity:1"
         sodipodi:type="star" />
      <ellipse
         ry="13.861392"
         rx="13.817245"
         cy="137.25652"
         cx="152.89519"
         id="path2695"
         style="fill:#dededb;fill-opacity:0.98994978;stroke:#b3b3b3;stroke-width:0.70361865;stroke-linecap:round;stroke-miterlimit:4;stroke-dasharray:none;stroke-opacity:1" />
      <ellipse
         ry="2.7395127"
         rx="2.6726952"
         cy="136.97237"
         cx="153.01181"
         id="path2697"
         style="fill:#ffffff;fill-opacity:0.98994978;stroke:#b3b3b3;stroke-width:1.06500006;stroke-linecap:round;stroke-miterlimit:4;stroke-dasharray:none;stroke-opacity:1" />
    </g>
    <path
       style="display:inline;fill:#ffffff;fill-opacity:0.98994978;stroke:#101920;stroke-width:4.50054646;stroke-linecap:round;stroke-linejoin:miter;stroke-miterlimit:4;stroke-dasharray:none;stroke-opacity:1"
       d="M 43.550096,192.87223 C 22.048207,193.18375 12.795969,187.35625 10.230594,173.3217 3.9884386,139.1724 42.950824,139.67035 52.330798,142.46849 48.324007,131.9803 50.90176,107.20179 65.661414,98.111285 86.228405,86.269716 96.823528,109.95295 96.823528,109.95295 c 6.258792,-9.12604 36.459462,-38.203317 67.933482,-16.515933 23.20806,15.991633 26.48785,45.185113 26.48785,45.185113 18.69726,-15.26944 37.59281,-8.89686 37.59281,-8.89686 11.33176,4.07321 22.73918,14.75524 24.92053,28.68958 4.24085,28.42459 -18.67555,34.549 -25.88621,34.67054"
       id="path1987-1"
       inkscape:connector-curvature="0"
       sodipodi:nodetypes="cscccscccc"
       inkscape:export-xdpi="96"
       inkscape:export-ydpi="96" />
    <path
       style="display:inline;fill:none;stroke:#101920;stroke-width:2.16865706;stroke-linecap:round;stroke-linejoin:miter;stroke-miterlimit:4;stroke-dasharray:none;stroke-opacity:1"
       d="m 77.272041,174.3863 c 0,0 3.488609,-19.95981 -9.915757,-20.71287 -11.349305,-0.63757 -16.966913,25.5606 -11.127632,28.09457 8.813979,5.3986 15.314313,2.31347 18.8399,9.14456 3.525571,6.83078 3.745939,20.27216 0.220584,27.98438 -3.745938,5.50875 -6.390162,8.2631 -13.441345,8.04278 -6.05959,-0.77125 -12.009036,-4.29688 -11.017466,-16.63646"
       id="path1989-0"
       inkscape:connector-curvature="0"
       sodipodi:nodetypes="csccccc"
       inkscape:export-xdpi="96"
       inkscape:export-ydpi="96" />
    <path
       style="display:inline;fill:none;stroke:#101920;stroke-width:2.16865706;stroke-linecap:round;stroke-linejoin:miter;stroke-miterlimit:4;stroke-dasharray:none;stroke-opacity:1"
       d="m 100.18841,152.70522 c 0,0 -0.298763,37.53975 0.88141,57.44937 1.17441,19.81275 21.81468,23.99055 24.12834,0.85384"
       id="path1991-2"
       inkscape:connector-curvature="0"
       sodipodi:nodetypes="csc"
       inkscape:export-xdpi="96"
       inkscape:export-ydpi="96" />
    <path
       style="display:inline;fill:none;stroke:#101920;stroke-width:2.16865706;stroke-linecap:round;stroke-linejoin:miter;stroke-miterlimit:4;stroke-dasharray:none;stroke-opacity:1"
       d="m 91.815093,177.18479 17.628027,-0.66112"
       id="path1993-8"
       inkscape:connector-curvature="0"
       sodipodi:nodetypes="cc"
       inkscape:export-xdpi="96"
       inkscape:export-ydpi="96" />
    <path
       style="display:inline;fill:none;stroke:#101920;stroke-width:2.16865706;stroke-linecap:round;stroke-linejoin:miter;stroke-miterlimit:4;stroke-dasharray:none;stroke-opacity:1"
       d="m 139.63101,175.35716 c 0,0 0.22037,-23.86383 13.66164,-22.65194 12.11925,2.20353 13.22101,19.56701 13.22101,19.56701 0,0 1.87312,40.10366 2.6442,46.27348 0.44071,2.20344 5.06805,14.54305 13.22096,3.63573"
       id="path1995-1"
       inkscape:connector-curvature="0"
       sodipodi:nodetypes="ccccc"
       inkscape:export-xdpi="96"
       inkscape:export-ydpi="96" />
    <path
       style="display:inline;fill:none;stroke:#101920;stroke-width:2.16865706;stroke-linecap:butt;stroke-linejoin:miter;stroke-miterlimit:4;stroke-dasharray:none;stroke-opacity:1"
       d="m 167.36832,188.27986 c 0,0 -11.43148,-14.13469 -22.44892,-3.11715 -8.37331,8.04272 -11.51,20.0414 -7.27157,31.17945 2.9492,7.75011 13.22097,16.08551 23.35707,5.06804 8.48347,-9.25461 7.21255,-15.01605 7.21255,-15.01605"
       id="path1997-5"
       inkscape:connector-curvature="0"
       sodipodi:nodetypes="ccscc"
       inkscape:export-xdpi="96"
       inkscape:export-ydpi="96" />
    <path
       style="display:inline;fill:none;stroke:#101920;stroke-width:2.16865706;stroke-linecap:round;stroke-linejoin:miter;stroke-miterlimit:4;stroke-dasharray:none;stroke-opacity:1"
       d="m 212.74572,170.71329 c 0,0 -0.22034,-15.58422 -9.91573,-18.00807 -9.03433,-1.54246 -12.00903,20.43191 -12.00903,20.43191 0,0 -2.20348,21.04339 0.88135,40.54437 4.84773,23.35704 22.80619,10.46658 21.26374,-3.52563"
       id="path1999-4"
       inkscape:connector-curvature="0"
       sodipodi:nodetypes="ccccc"
       inkscape:export-xdpi="96"
       inkscape:export-ydpi="96" />
    <path
       style="display:inline;fill:#101920;fill-opacity:1;stroke:#101920;stroke-width:1.23395813px;stroke-linecap:butt;stroke-linejoin:miter;stroke-opacity:1"
       d="m 226.48957,188.65714 0.62325,8.41378 -5.9208,0.31155 -0.62323,-8.10215 z"
       id="path2001-3"
       inkscape:connector-curvature="0"
       inkscape:export-xdpi="96"
       inkscape:export-ydpi="96" />
    <path
       style="display:inline;fill:none;stroke:#101920;stroke-width:1.23395813px;stroke-linecap:butt;stroke-linejoin:miter;stroke-opacity:1"
       d="m 220.16948,191.7414 -3.69084,0.33066"
       id="path2003-2"
       inkscape:connector-curvature="0"
       inkscape:export-xdpi="96"
       inkscape:export-ydpi="96" />
    <path
       style="display:inline;fill:none;stroke:#101920;stroke-width:1.23395813px;stroke-linecap:butt;stroke-linejoin:miter;stroke-opacity:1"
       d="m 220.44493,195.04665 -3.58065,0.33066"
       id="path2005-8"
       inkscape:connector-curvature="0"
       sodipodi:nodetypes="cc"
       inkscape:export-xdpi="96"
       inkscape:export-ydpi="96" />
  </g>
</svg>
