<?xml version="1.0" encoding="UTF-8" standalone="no"?>
<!-- Created with Inkscape (http://www.inkscape.org/) -->

<svg
   xmlns:dc="http://purl.org/dc/elements/1.1/"
   xmlns:cc="http://creativecommons.org/ns#"
   xmlns:rdf="http://www.w3.org/1999/02/22-rdf-syntax-ns#"
   xmlns:svg="http://www.w3.org/2000/svg"
   xmlns="http://www.w3.org/2000/svg"
   xmlns:sodipodi="http://sodipodi.sourceforge.net/DTD/sodipodi-0.dtd"
   xmlns:inkscape="http://www.inkscape.org/namespaces/inkscape"
   width="620mm"
   height="620.24615mm"
   viewBox="0 0 620 620.24615"
   version="1.1"
   id="svg8"
   sodipodi:docname="Avatar1.svg"
   inkscape:version="0.92.3 (2405546, 2018-03-11)"
   inkscape:export-filename="D:\Source\StacSolutionsWeb\Images\Avatar1.png"
   inkscape:export-xdpi="96"
   inkscape:export-ydpi="96">
  <defs
     id="defs2" />
  <sodipodi:namedview
     id="base"
     pagecolor="#ffffff"
     bordercolor="#666666"
     borderopacity="1.0"
     inkscape:pageopacity="0.0"
     inkscape:pageshadow="2"
     inkscape:zoom="0.35"
     inkscape:cx="1812.0352"
     inkscape:cy="1241.7688"
     inkscape:document-units="mm"
     inkscape:current-layer="layer2"
     showgrid="false"
     inkscape:window-width="2560"
     inkscape:window-height="1361"
     inkscape:window-x="2391"
     inkscape:window-y="-9"
     inkscape:window-maximized="1"
     fit-margin-top="0"
     fit-margin-left="3.8"
     fit-margin-right="0"
     fit-margin-bottom="0" />
  <metadata
     id="metadata5">
    <rdf:RDF>
      <cc:Work
         rdf:about="">
        <dc:format>image/svg+xml</dc:format>
        <dc:type
           rdf:resource="http://purl.org/dc/dcmitype/StillImage" />
        <dc:title></dc:title>
      </cc:Work>
    </rdf:RDF>
  </metadata>
  <g
     inkscape:label="Layer 1"
     inkscape:groupmode="layer"
     id="layer1"
     style="display:inline"
     transform="translate(378.88902,45.12762)" />
  <g
     inkscape:groupmode="layer"
     id="layer2"
     inkscape:label="Layer 2"
     style="display:inline"
     transform="translate(378.88902,45.12762)">
    <rect
       style="opacity:1;fill:#d7eef4;fill-opacity:1;stroke:#502d16;stroke-width:3.0999999;stroke-linecap:round;stroke-miterlimit:4;stroke-dasharray:none;stroke-opacity:1"
       id="rect1807"
       width="811.1369"
       height="719.66669"
       x="-462.79974"
       y="-101.45882" />
    <path
       style="fill:#004455;stroke:#000000;stroke-width:3.0999999;stroke-linecap:butt;stroke-linejoin:miter;stroke-miterlimit:4;stroke-dasharray:none;stroke-opacity:1"
       d="m -166.42475,623.89748 c 0,0 -0.26725,-142.45466 66.01559,-176.13064 66.282465,-33.67595 99.69096057,41.69406 106.1053908,56.66116 8.0180322,19.24341 22.9850352,80.44812 26.7267942,116.5295 2.332138,22.48856 -198.847775,2.93998 -198.847775,2.93998 z"
       id="path1191"
       inkscape:connector-curvature="0"
       sodipodi:nodetypes="cscsc"
       inkscape:export-xdpi="96"
       inkscape:export-ydpi="96" />
    <path
       style="fill:#f4e3d7;stroke:#070000;stroke-width:4.26499987;stroke-linecap:butt;stroke-linejoin:miter;stroke-miterlimit:4;stroke-dasharray:none;stroke-opacity:1"
       d="m -213.73143,94.88785 c 4.29059,0 12.91261,140.12717 14.43255,213.81595 0.71807,34.81313 24.41076,65.94328 38.48679,81.24993 16.21566,17.63334 51.00263,28.07334 71.849587,25.42996 l 3.787616,31.76572 49.177314,10.69078 -3.420762,-44.24355 c 0,0 44.2590391,-6.72761 67.778614,-39.86903 11.780114,-16.59935 10.65273,-55.85144 10.65273,-67.07676 0,-11.22533 1.160794,-135.32359 -2.046428,-141.73805 L -176.84824,37.157621 Z"
       id="path839"
       inkscape:connector-curvature="0"
       sodipodi:nodetypes="cssccccssccc"
       inkscape:export-xdpi="96"
       inkscape:export-ydpi="96" />
    <path
       style="fill:none;stroke:#000000;stroke-width:3.2650001;stroke-linecap:round;stroke-linejoin:miter;stroke-miterlimit:4;stroke-dasharray:none;stroke-opacity:1"
       d="m -93.460199,176.67266 c 0,0 12.294331,-8.01809 18.708765,-4.27632 6.414434,3.74178 12.294331,13.36348 18.174225,13.36348"
       id="path845"
       inkscape:connector-curvature="0"
       inkscape:export-xdpi="96"
       inkscape:export-ydpi="96" />
    <path
       style="fill:none;stroke:#000000;stroke-width:3.2650001;stroke-linecap:round;stroke-linejoin:miter;stroke-miterlimit:4;stroke-dasharray:none;stroke-opacity:1"
       d="m -188.6081,171.8618 c 0,0 -17.14047,6.44689 -19.81316,15.53406"
       id="path847"
       inkscape:connector-curvature="0"
       sodipodi:nodetypes="cc"
       inkscape:export-xdpi="96"
       inkscape:export-ydpi="96" />
    <path
       style="fill:#50bbe5;fill-opacity:0.31068019;stroke:#000000;stroke-width:3.16499996;stroke-linecap:butt;stroke-linejoin:miter;stroke-miterlimit:4;stroke-dasharray:none;stroke-opacity:1"
       d="m -216.40414,208.745 48.10852,-2.13816 1.60362,31.5378 -46.5049,3.20724 z"
       id="path849"
       inkscape:connector-curvature="0"
       sodipodi:nodetypes="ccccc"
       inkscape:export-xdpi="96"
       inkscape:export-ydpi="96" />
    <path
       style="fill:#50bbe5;fill-opacity:0.30980392;stroke:#000000;stroke-width:3.16499996;stroke-linecap:butt;stroke-linejoin:miter;stroke-miterlimit:4;stroke-dasharray:none;stroke-opacity:1"
       d="m -108.15998,206.0723 3.4745,33.14142 h 58.264454 l 4.276286,-32.60688 z"
       id="path851"
       inkscape:connector-curvature="0"
       sodipodi:nodetypes="ccccc"
       inkscape:export-xdpi="96"
       inkscape:export-ydpi="96" />
    <path
       style="fill:none;stroke:#000000;stroke-width:3.16499996;stroke-linecap:butt;stroke-linejoin:miter;stroke-miterlimit:4;stroke-dasharray:none;stroke-opacity:1"
       d="m -167.22654,227.45386 c 0,0 29.09485,-16.12394 61.43447,-0.75595"
       id="path853"
       inkscape:connector-curvature="0"
       sodipodi:nodetypes="cc"
       inkscape:export-xdpi="96"
       inkscape:export-ydpi="96" />
    <path
       style="fill:none;stroke:#000000;stroke-width:6;stroke-linecap:round;stroke-linejoin:miter;stroke-miterlimit:4;stroke-dasharray:none;stroke-opacity:1"
       d="m -73.68236,208.21046 c 0,0 -1.870881,15.7689 -1.603611,22.45064"
       id="path855"
       inkscape:connector-curvature="0"
       sodipodi:nodetypes="cc"
       inkscape:export-xdpi="96"
       inkscape:export-ydpi="96" />
    <path
       style="fill:none;stroke:#000000;stroke-width:6;stroke-linecap:round;stroke-linejoin:miter;stroke-miterlimit:4;stroke-dasharray:none;stroke-opacity:1"
       d="m -187.53903,211.95223 c 0,0 -0.26726,15.7689 1.60362,21.38156"
       id="path857"
       inkscape:connector-curvature="0"
       sodipodi:nodetypes="cc"
       inkscape:export-xdpi="96"
       inkscape:export-ydpi="96" />
    <path
       style="fill:none;stroke:#000000;stroke-width:3.16499996;stroke-linecap:round;stroke-linejoin:miter;stroke-miterlimit:4;stroke-dasharray:none;stroke-opacity:1"
       d="m -141.56868,257.38805 c 0,0 -28.86509,-5.34539 -12.29439,22.98518"
       id="path859"
       inkscape:connector-curvature="0"
       inkscape:export-xdpi="96"
       inkscape:export-ydpi="96" />
    <path
       style="fill:#502d16;fill-opacity:1;stroke:#000000;stroke-width:3.0999999;stroke-linecap:butt;stroke-linejoin:miter;stroke-miterlimit:4;stroke-dasharray:none;stroke-opacity:1"
       d="m -199.1169,305.31584 c 0,0 119.062376,-25.70238 143.630685,17.00893 12.284151,21.35565 6.425554,53.20015 -13.087355,69.31138 -19.512909,16.11124 -52.68025,16.48921 -52.68025,16.48921 0,0 -67.27976,-3.77975 -77.86308,-102.80952 z"
       id="path1201"
       inkscape:connector-curvature="0"
       sodipodi:nodetypes="csscc"
       inkscape:export-xdpi="96"
       inkscape:export-ydpi="96" />
    <path
       style="fill:#f4e3d7;stroke:#000000;stroke-width:3.0999999;stroke-linecap:butt;stroke-linejoin:miter;stroke-miterlimit:4;stroke-dasharray:none;stroke-opacity:1"
       d="m -180.59608,314.38727 c 11.90625,-3.87425 79.27374,-15.84993 96.19485,2.83483 9.361616,24.73237 -12.354911,39.01992 -39.12043,40.63243 -34.77145,2.09484 -66.38907,-11.33346 -57.07442,-43.46726 z"
       id="path1203"
       inkscape:connector-curvature="0"
       sodipodi:nodetypes="ccsc"
       inkscape:export-xdpi="96"
       inkscape:export-ydpi="96" />
    <path
       style="fill:none;stroke:#000000;stroke-width:3.2650001;stroke-linecap:round;stroke-linejoin:miter;stroke-miterlimit:4;stroke-dasharray:none;stroke-opacity:1"
       d="m -168.83015,330.08535 c 0,0 39.02133,41.15951 77.508099,-8.01807"
       id="path861"
       inkscape:connector-curvature="0"
       inkscape:export-xdpi="96"
       inkscape:export-ydpi="96" />
    <path
       style="fill:#f4e3d7;stroke:#000000;stroke-width:3.2650001;stroke-linecap:round;stroke-linejoin:miter;stroke-miterlimit:4;stroke-dasharray:none;stroke-opacity:1"
       d="m 14.916964,205.40413 c 0,0 16.996664,-9.88512 34.210308,0.53454 14.057361,8.50907 20.847025,26.72695 13.363478,40.09043 -7.483549,13.36347 -29.934095,18.17433 -37.417603,13.89801"
       id="path841"
       inkscape:connector-curvature="0"
       sodipodi:nodetypes="cssc"
       inkscape:export-xdpi="96"
       inkscape:export-ydpi="96" />
    <path
       style="fill:#f4e3d7;stroke:#000000;stroke-width:3.16499996;stroke-linecap:round;stroke-linejoin:miter;stroke-miterlimit:4;stroke-dasharray:none;stroke-opacity:1"
       d="m 30.953044,218.23307 c 0,0 14.111009,0.44005 16.03608,10.15624 1.915618,9.66846 -6.948961,12.82894 -14.432469,12.2944"
       id="path843"
       inkscape:connector-curvature="0"
       sodipodi:nodetypes="csc"
       inkscape:export-xdpi="96"
       inkscape:export-ydpi="96" />
    <path
       style="fill:none;stroke:#000000;stroke-width:3.0999999;stroke-linecap:butt;stroke-linejoin:miter;stroke-miterlimit:4;stroke-dasharray:none;stroke-opacity:1"
       d="M -44.524965,221.7831 36.865881,198.48221"
       id="path869"
       inkscape:connector-curvature="0"
       sodipodi:nodetypes="cc"
       inkscape:export-xdpi="96"
       inkscape:export-ydpi="96" />
    <path
       style="fill:#502d16;stroke:#000000;stroke-width:3.56500006;stroke-linecap:butt;stroke-linejoin:miter;stroke-miterlimit:4;stroke-dasharray:none;stroke-opacity:1"
       d="m -226.70916,108.76794 c 0,0 -8.05264,-55.864983 32.77321,-95.517329 39.8362,-38.691125 94.226777,-42.06605 132.780128,-36.01843 C -22.602471,-16.7202 18.794553,-3.0804742 35.20068,47.222613 49.841565,92.113252 48.815622,176.71222 35.910777,195.3595 28.855196,205.55469 -34.341365,165.26414 -54.835798,153.13875 -81.582045,137.31448 -166.53123,86.350412 -176.06037,68.702417 c -5.22839,-9.682995 6.26904,1.992721 -50.64879,40.065523 z"
       id="path833"
       inkscape:connector-curvature="0"
       sodipodi:nodetypes="cssssssc"
       inkscape:export-xdpi="96"
       inkscape:export-ydpi="96" />
    <path
       style="fill:#004455;stroke:#000000;stroke-width:3.0999999;stroke-linecap:butt;stroke-linejoin:miter;stroke-miterlimit:4;stroke-dasharray:none;stroke-opacity:1"
       d="m -88.114829,485.18458 c 0,0 -16.036111,-28.86509 -29.399571,-24.05425 -13.3635,4.81086 15.50162,-23.51973 26.726886,-24.85606 31.003096,21.11428 59.333494,1.33633 59.333494,1.33633 0,0 15.234273,16.30344 17.906958,23.51974 2.672675,7.21627 -6.948971,1.87087 -12.027061,3.47451 -5.078093,1.60361 -17.105154,19.51065 -17.105154,19.51065 z"
       id="path1193"
       inkscape:connector-curvature="0"
       sodipodi:nodetypes="csccsccc"
       inkscape:export-xdpi="96"
       inkscape:export-ydpi="96" />
    <path
       style="fill:#008080;stroke:#000000;stroke-width:3.20000005;stroke-linecap:butt;stroke-linejoin:miter;stroke-miterlimit:4;stroke-dasharray:none;stroke-opacity:1"
       d="m -74.484167,445.09415 c 0,0 -20.8469,55.3248 -16.303347,115.46044 4.543556,60.13563 1.870881,68.15373 1.870881,68.15373 l 48.375504,2.67268 c 0,0 0.594217,-179.14969 -16.303347,-184.68323 -7.724975,-2.52974 -17.639691,-1.60362 -17.639691,-1.60362 z"
       id="path1195"
       inkscape:connector-curvature="0"
       sodipodi:nodetypes="csccsc"
       inkscape:export-xdpi="96"
       inkscape:export-ydpi="96" />
    <path
       style="fill:none;stroke:#000000;stroke-width:3.0999999;stroke-linecap:butt;stroke-linejoin:miter;stroke-miterlimit:4;stroke-dasharray:none;stroke-opacity:1"
       d="m -83.012179,476.49112 c 12.200611,6.06202 24.048295,5.06562 35.746899,1.08737"
       id="path1197"
       inkscape:connector-curvature="0"
       sodipodi:nodetypes="cc"
       inkscape:export-xdpi="96"
       inkscape:export-ydpi="96" />
  </g>
</svg>
