<?xml version="1.0" encoding="UTF-8" standalone="no"?>
<!DOCTYPE svg PUBLIC "-//W3C//DTD SVG 1.1//EN"
 "http://www.w3.org/Graphics/SVG/1.1/DTD/svg11.dtd">
<!-- Generated by graphviz version 2.38.0 (20140413.2041)
 -->
<!-- Title: %3 Pages: 1 -->
<svg width="235pt" height="335pt"
 viewBox="0.00 0.00 235.30 335.00" xmlns="http://www.w3.org/2000/svg" xmlns:xlink="http://www.w3.org/1999/xlink">
<g id="graph0" class="graph" transform="scale(1 1) rotate(0) translate(4 331)">
<title>%3</title>
<polygon fill="white" stroke="none" points="-4,4 -4,-331 231.296,-331 231.296,4 -4,4"/>
<g id="clust1" class="cluster"><title>cluster1</title>
<polygon fill="none" stroke="black" points="8,-64 8,-283 166,-283 166,-64 8,-64"/>
<text text-anchor="middle" x="87" y="-267.8" font-family="Times New Roman,serif" font-size="14.00">Inner Complexity</text>
</g>
<!-- User Interface -->
<g id="node1" class="node"><title>User Interface</title>
<ellipse fill="none" stroke="black" cx="78" cy="-234" rx="61.99" ry="18"/>
<text text-anchor="middle" x="78" y="-230.3" font-family="Times New Roman,serif" font-size="14.00">User Interface</text>
</g>
<!-- Business Logic -->
<g id="node2" class="node"><title>Business Logic</title>
<ellipse fill="none" stroke="black" cx="87" cy="-162" rx="66.0889" ry="18"/>
<text text-anchor="middle" x="87" y="-158.3" font-family="Times New Roman,serif" font-size="14.00">Business Logic</text>
</g>
<!-- User Interface&#45;&gt;Business Logic -->
<g id="edge1" class="edge"><title>User Interface&#45;&gt;Business Logic</title>
<path fill="none" stroke="black" d="M80.2247,-215.697C81.2165,-207.983 82.4084,-198.712 83.5141,-190.112"/>
<polygon fill="black" stroke="black" points="86.997,-190.469 84.8009,-180.104 80.0541,-189.576 86.997,-190.469"/>
</g>
<!-- Data Persistance -->
<g id="node3" class="node"><title>Data Persistance</title>
<ellipse fill="none" stroke="black" cx="87" cy="-90" rx="70.6878" ry="18"/>
<text text-anchor="middle" x="87" y="-86.3" font-family="Times New Roman,serif" font-size="14.00">Data Persistance</text>
</g>
<!-- Business Logic&#45;&gt;Data Persistance -->
<g id="edge2" class="edge"><title>Business Logic&#45;&gt;Data Persistance</title>
<path fill="none" stroke="black" d="M87,-143.697C87,-135.983 87,-126.712 87,-118.112"/>
<polygon fill="black" stroke="black" points="90.5001,-118.104 87,-108.104 83.5001,-118.104 90.5001,-118.104"/>
</g>
<!-- Database -->
<g id="node5" class="node"><title>Database</title>
<ellipse fill="none" stroke="black" cx="165" cy="-18" rx="44.393" ry="18"/>
<text text-anchor="middle" x="165" y="-14.3" font-family="Times New Roman,serif" font-size="14.00">Database</text>
</g>
<!-- Data Persistance&#45;&gt;Database -->
<g id="edge7" class="edge"><title>Data Persistance&#45;&gt;Database</title>
<path fill="none" stroke="black" d="M105.485,-72.411C115.708,-63.2366 128.56,-51.7029 139.702,-41.7033"/>
<polygon fill="black" stroke="black" points="142.346,-44.0329 147.451,-34.7489 137.671,-38.8232 142.346,-44.0329"/>
</g>
<!-- Website -->
<g id="node4" class="node"><title>Website</title>
<ellipse fill="none" stroke="black" cx="187" cy="-309" rx="40.0939" ry="18"/>
<text text-anchor="middle" x="187" y="-305.3" font-family="Times New Roman,serif" font-size="14.00">Website</text>
</g>
<!-- Website&#45;&gt;User Interface -->
<g id="edge4" class="edge"><title>Website&#45;&gt;User Interface</title>
<path fill="none" stroke="black" d="M165.465,-293.578C149.683,-283.008 127.993,-268.482 110.162,-256.539"/>
<polygon fill="black" stroke="black" points="112.017,-253.57 101.761,-250.913 108.122,-259.386 112.017,-253.57"/>
</g>
<!-- Website&#45;&gt;Business Logic -->
<g id="edge5" class="edge"><title>Website&#45;&gt;Business Logic</title>
<path fill="none" stroke="black" d="M182.56,-290.843C176.954,-271.393 165.946,-239.36 149,-216 140.651,-204.491 129.314,-193.857 118.616,-185.182"/>
<polygon fill="black" stroke="black" points="120.659,-182.337 110.621,-178.948 116.355,-187.857 120.659,-182.337"/>
</g>
<!-- Website&#45;&gt;Data Persistance -->
<g id="edge6" class="edge"><title>Website&#45;&gt;Data Persistance</title>
<path fill="none" stroke="black" d="M188.894,-290.969C191.531,-259.167 192.937,-189.834 162,-144 153.231,-131.008 140.135,-120.178 127.331,-111.766"/>
<polygon fill="black" stroke="black" points="128.912,-108.628 118.569,-106.331 125.222,-114.577 128.912,-108.628"/>
</g>
<!-- Website&#45;&gt;Database -->
<g id="edge3" class="edge"><title>Website&#45;&gt;Database</title>
<path fill="none" stroke="black" d="M199.248,-291.694C200.792,-288.917 202.132,-285.967 203,-283 211.362,-254.421 205.833,-245.643 203,-216 197.134,-154.618 181.21,-83.9268 171.943,-46.1525"/>
<polygon fill="black" stroke="black" points="175.22,-44.8281 169.41,-35.969 168.428,-46.5182 175.22,-44.8281"/>
</g>
</g>
</svg>
